<mxfile host="app.diagrams.net" agent="Mozilla/5.0 (Windows NT 10.0; Win64; x64) AppleWebKit/537.36 (KHTML, like Gecko) Chrome/130.0.0.0 Safari/537.36" version="24.8.2">
  <diagram name="Page-1" id="MIx-ulM1Asqwx3ALx0Wh">
    <mxGraphModel dx="2284" dy="738" grid="1" gridSize="10" guides="1" tooltips="1" connect="1" arrows="1" fold="1" page="1" pageScale="1" pageWidth="850" pageHeight="1100" math="0" shadow="0">
      <root>
        <mxCell id="0" />
        <mxCell id="1" parent="0" />
        <mxCell id="dnLP0WW2CKZ9wzkx1xDA-40" style="edgeStyle=orthogonalEdgeStyle;rounded=0;orthogonalLoop=1;jettySize=auto;html=1;endArrow=none;endFill=0;" parent="1" source="dnLP0WW2CKZ9wzkx1xDA-1" target="dnLP0WW2CKZ9wzkx1xDA-39" edge="1">
          <mxGeometry relative="1" as="geometry">
            <Array as="points">
              <mxPoint x="550" y="410" />
            </Array>
          </mxGeometry>
        </mxCell>
        <mxCell id="dnLP0WW2CKZ9wzkx1xDA-123" style="edgeStyle=orthogonalEdgeStyle;rounded=0;orthogonalLoop=1;jettySize=auto;html=1;entryX=0.5;entryY=0;entryDx=0;entryDy=0;endArrow=none;endFill=0;" parent="1" source="dnLP0WW2CKZ9wzkx1xDA-1" target="dnLP0WW2CKZ9wzkx1xDA-122" edge="1">
          <mxGeometry relative="1" as="geometry">
            <Array as="points">
              <mxPoint x="430" y="400" />
              <mxPoint x="850" y="400" />
              <mxPoint x="850" y="468" />
            </Array>
          </mxGeometry>
        </mxCell>
        <mxCell id="dnLP0WW2CKZ9wzkx1xDA-127" style="edgeStyle=orthogonalEdgeStyle;rounded=0;orthogonalLoop=1;jettySize=auto;html=1;entryX=0.5;entryY=0;entryDx=0;entryDy=0;endArrow=none;endFill=0;" parent="1" source="dnLP0WW2CKZ9wzkx1xDA-1" target="dnLP0WW2CKZ9wzkx1xDA-126" edge="1">
          <mxGeometry relative="1" as="geometry">
            <Array as="points">
              <mxPoint x="676" y="340" />
            </Array>
          </mxGeometry>
        </mxCell>
        <mxCell id="dnLP0WW2CKZ9wzkx1xDA-1" value="Korisnik" style="rounded=0;whiteSpace=wrap;html=1;fillColor=#f5f5f5;fontColor=#333333;strokeColor=#666666;" parent="1" vertex="1">
          <mxGeometry x="357.5" y="300" width="115" height="60" as="geometry" />
        </mxCell>
        <mxCell id="dnLP0WW2CKZ9wzkx1xDA-12" style="edgeStyle=orthogonalEdgeStyle;rounded=0;orthogonalLoop=1;jettySize=auto;html=1;entryX=0.25;entryY=0;entryDx=0;entryDy=0;endArrow=none;endFill=0;" parent="1" source="dnLP0WW2CKZ9wzkx1xDA-2" target="dnLP0WW2CKZ9wzkx1xDA-1" edge="1">
          <mxGeometry relative="1" as="geometry" />
        </mxCell>
        <mxCell id="dnLP0WW2CKZ9wzkx1xDA-2" value="Ime" style="ellipse;whiteSpace=wrap;html=1;" parent="1" vertex="1">
          <mxGeometry x="312.5" y="240" width="65" height="40" as="geometry" />
        </mxCell>
        <mxCell id="dnLP0WW2CKZ9wzkx1xDA-13" style="edgeStyle=orthogonalEdgeStyle;rounded=0;orthogonalLoop=1;jettySize=auto;html=1;entryX=0.5;entryY=0;entryDx=0;entryDy=0;endArrow=none;endFill=0;" parent="1" source="dnLP0WW2CKZ9wzkx1xDA-3" target="dnLP0WW2CKZ9wzkx1xDA-1" edge="1">
          <mxGeometry relative="1" as="geometry" />
        </mxCell>
        <mxCell id="dnLP0WW2CKZ9wzkx1xDA-3" value="Prezime" style="ellipse;whiteSpace=wrap;html=1;" parent="1" vertex="1">
          <mxGeometry x="380" y="240" width="65" height="40" as="geometry" />
        </mxCell>
        <mxCell id="dnLP0WW2CKZ9wzkx1xDA-4" value="&lt;u&gt;username&lt;/u&gt;" style="ellipse;whiteSpace=wrap;html=1;" parent="1" vertex="1">
          <mxGeometry x="452.5" y="240" width="65" height="40" as="geometry" />
        </mxCell>
        <mxCell id="dnLP0WW2CKZ9wzkx1xDA-21" style="edgeStyle=orthogonalEdgeStyle;rounded=0;orthogonalLoop=1;jettySize=auto;html=1;entryX=1;entryY=0.25;entryDx=0;entryDy=0;endArrow=none;endFill=0;" parent="1" source="dnLP0WW2CKZ9wzkx1xDA-5" target="dnLP0WW2CKZ9wzkx1xDA-1" edge="1">
          <mxGeometry relative="1" as="geometry" />
        </mxCell>
        <mxCell id="dnLP0WW2CKZ9wzkx1xDA-5" value="email" style="ellipse;whiteSpace=wrap;html=1;" parent="1" vertex="1">
          <mxGeometry x="522.5" y="260" width="55" height="40" as="geometry" />
        </mxCell>
        <mxCell id="dnLP0WW2CKZ9wzkx1xDA-20" style="edgeStyle=orthogonalEdgeStyle;rounded=0;orthogonalLoop=1;jettySize=auto;html=1;endArrow=none;endFill=0;" parent="1" target="dnLP0WW2CKZ9wzkx1xDA-1" edge="1">
          <mxGeometry relative="1" as="geometry">
            <mxPoint x="577.5" y="310" as="sourcePoint" />
          </mxGeometry>
        </mxCell>
        <mxCell id="dnLP0WW2CKZ9wzkx1xDA-6" value="birthdate" style="ellipse;whiteSpace=wrap;html=1;" parent="1" vertex="1">
          <mxGeometry x="577.5" y="290" width="65" height="40" as="geometry" />
        </mxCell>
        <mxCell id="dnLP0WW2CKZ9wzkx1xDA-9" style="edgeStyle=orthogonalEdgeStyle;rounded=0;orthogonalLoop=1;jettySize=auto;html=1;endArrow=none;endFill=0;" parent="1" target="dnLP0WW2CKZ9wzkx1xDA-1" edge="1">
          <mxGeometry relative="1" as="geometry">
            <mxPoint x="327.5" y="350" as="sourcePoint" />
          </mxGeometry>
        </mxCell>
        <mxCell id="dnLP0WW2CKZ9wzkx1xDA-7" value="join_date" style="ellipse;whiteSpace=wrap;html=1;" parent="1" vertex="1">
          <mxGeometry x="262.5" y="330" width="65" height="40" as="geometry" />
        </mxCell>
        <mxCell id="dnLP0WW2CKZ9wzkx1xDA-8" value="pol" style="ellipse;whiteSpace=wrap;html=1;" parent="1" vertex="1">
          <mxGeometry x="262.5" y="280" width="65" height="40" as="geometry" />
        </mxCell>
        <mxCell id="dnLP0WW2CKZ9wzkx1xDA-11" style="edgeStyle=orthogonalEdgeStyle;rounded=0;orthogonalLoop=1;jettySize=auto;html=1;entryX=0.042;entryY=0.133;entryDx=0;entryDy=0;entryPerimeter=0;endArrow=none;endFill=0;" parent="1" source="dnLP0WW2CKZ9wzkx1xDA-8" target="dnLP0WW2CKZ9wzkx1xDA-1" edge="1">
          <mxGeometry relative="1" as="geometry" />
        </mxCell>
        <mxCell id="dnLP0WW2CKZ9wzkx1xDA-19" style="edgeStyle=orthogonalEdgeStyle;rounded=0;orthogonalLoop=1;jettySize=auto;html=1;entryX=0.808;entryY=-0.017;entryDx=0;entryDy=0;entryPerimeter=0;endArrow=none;endFill=0;" parent="1" source="dnLP0WW2CKZ9wzkx1xDA-4" target="dnLP0WW2CKZ9wzkx1xDA-1" edge="1">
          <mxGeometry relative="1" as="geometry" />
        </mxCell>
        <mxCell id="dnLP0WW2CKZ9wzkx1xDA-34" style="edgeStyle=orthogonalEdgeStyle;rounded=0;orthogonalLoop=1;jettySize=auto;html=1;entryX=0.5;entryY=1;entryDx=0;entryDy=0;endArrow=none;endFill=0;" parent="1" source="dnLP0WW2CKZ9wzkx1xDA-22" target="dnLP0WW2CKZ9wzkx1xDA-32" edge="1">
          <mxGeometry relative="1" as="geometry">
            <Array as="points">
              <mxPoint x="288" y="510" />
            </Array>
          </mxGeometry>
        </mxCell>
        <mxCell id="dnLP0WW2CKZ9wzkx1xDA-41" style="edgeStyle=orthogonalEdgeStyle;rounded=0;orthogonalLoop=1;jettySize=auto;html=1;entryX=0.5;entryY=1;entryDx=0;entryDy=0;shape=link;" parent="1" source="dnLP0WW2CKZ9wzkx1xDA-22" target="dnLP0WW2CKZ9wzkx1xDA-39" edge="1">
          <mxGeometry relative="1" as="geometry" />
        </mxCell>
        <mxCell id="dnLP0WW2CKZ9wzkx1xDA-55" style="edgeStyle=orthogonalEdgeStyle;rounded=0;orthogonalLoop=1;jettySize=auto;html=1;entryX=1;entryY=0.5;entryDx=0;entryDy=0;shape=link;" parent="1" source="dnLP0WW2CKZ9wzkx1xDA-22" target="dnLP0WW2CKZ9wzkx1xDA-53" edge="1">
          <mxGeometry relative="1" as="geometry" />
        </mxCell>
        <mxCell id="dnLP0WW2CKZ9wzkx1xDA-22" value="Turistichka_lista" style="whiteSpace=wrap;html=1;align=center;fillColor=#f5f5f5;fontColor=#333333;strokeColor=#666666;" parent="1" vertex="1">
          <mxGeometry x="370" y="500" width="100" height="40" as="geometry" />
        </mxCell>
        <mxCell id="dnLP0WW2CKZ9wzkx1xDA-23" value="ime" style="ellipse;whiteSpace=wrap;html=1;align=center;" parent="1" vertex="1">
          <mxGeometry x="340" y="595" width="70" height="30" as="geometry" />
        </mxCell>
        <mxCell id="dnLP0WW2CKZ9wzkx1xDA-26" style="edgeStyle=orthogonalEdgeStyle;rounded=0;orthogonalLoop=1;jettySize=auto;html=1;entryX=0.75;entryY=1;entryDx=0;entryDy=0;endArrow=none;endFill=0;" parent="1" source="dnLP0WW2CKZ9wzkx1xDA-24" target="dnLP0WW2CKZ9wzkx1xDA-22" edge="1">
          <mxGeometry relative="1" as="geometry" />
        </mxCell>
        <mxCell id="dnLP0WW2CKZ9wzkx1xDA-24" value="datum" style="ellipse;whiteSpace=wrap;html=1;align=center;" parent="1" vertex="1">
          <mxGeometry x="420" y="590" width="80" height="30" as="geometry" />
        </mxCell>
        <mxCell id="dnLP0WW2CKZ9wzkx1xDA-25" style="edgeStyle=orthogonalEdgeStyle;rounded=0;orthogonalLoop=1;jettySize=auto;html=1;entryX=0.13;entryY=1.05;entryDx=0;entryDy=0;entryPerimeter=0;endArrow=none;endFill=0;" parent="1" source="dnLP0WW2CKZ9wzkx1xDA-23" target="dnLP0WW2CKZ9wzkx1xDA-22" edge="1">
          <mxGeometry relative="1" as="geometry" />
        </mxCell>
        <mxCell id="dnLP0WW2CKZ9wzkx1xDA-44" value="" style="edgeStyle=orthogonalEdgeStyle;rounded=0;orthogonalLoop=1;jettySize=auto;html=1;endArrow=none;endFill=0;" parent="1" source="dnLP0WW2CKZ9wzkx1xDA-32" target="dnLP0WW2CKZ9wzkx1xDA-43" edge="1">
          <mxGeometry relative="1" as="geometry" />
        </mxCell>
        <mxCell id="dnLP0WW2CKZ9wzkx1xDA-32" value="ja_spodeli" style="shape=rhombus;perimeter=rhombusPerimeter;whiteSpace=wrap;html=1;align=center;fillColor=#dae8fc;strokeColor=#6c8ebf;" parent="1" vertex="1">
          <mxGeometry x="245" y="460" width="85" height="40" as="geometry" />
        </mxCell>
        <mxCell id="dnLP0WW2CKZ9wzkx1xDA-33" style="edgeStyle=orthogonalEdgeStyle;rounded=0;orthogonalLoop=1;jettySize=auto;html=1;entryX=0.5;entryY=0;entryDx=0;entryDy=0;endArrow=none;endFill=0;" parent="1" source="dnLP0WW2CKZ9wzkx1xDA-1" target="dnLP0WW2CKZ9wzkx1xDA-32" edge="1">
          <mxGeometry relative="1" as="geometry">
            <Array as="points">
              <mxPoint x="390" y="460" />
            </Array>
          </mxGeometry>
        </mxCell>
        <mxCell id="dnLP0WW2CKZ9wzkx1xDA-35" value="N" style="text;html=1;align=center;verticalAlign=middle;resizable=0;points=[];autosize=1;strokeColor=none;fillColor=none;" parent="1" vertex="1">
          <mxGeometry x="325" y="488" width="30" height="30" as="geometry" />
        </mxCell>
        <mxCell id="dnLP0WW2CKZ9wzkx1xDA-37" style="edgeStyle=orthogonalEdgeStyle;rounded=0;orthogonalLoop=1;jettySize=auto;html=1;entryX=0.842;entryY=1.017;entryDx=0;entryDy=0;entryPerimeter=0;endArrow=none;endFill=0;" parent="1" source="dnLP0WW2CKZ9wzkx1xDA-32" target="dnLP0WW2CKZ9wzkx1xDA-1" edge="1">
          <mxGeometry relative="1" as="geometry" />
        </mxCell>
        <mxCell id="dnLP0WW2CKZ9wzkx1xDA-38" value="M" style="text;html=1;align=center;verticalAlign=middle;resizable=0;points=[];autosize=1;strokeColor=none;fillColor=none;" parent="1" vertex="1">
          <mxGeometry x="425" y="458" width="30" height="30" as="geometry" />
        </mxCell>
        <mxCell id="dnLP0WW2CKZ9wzkx1xDA-39" value="poseduva" style="shape=rhombus;perimeter=rhombusPerimeter;whiteSpace=wrap;html=1;align=center;fillColor=#dae8fc;strokeColor=#6c8ebf;" parent="1" vertex="1">
          <mxGeometry x="510" y="448" width="85" height="40" as="geometry" />
        </mxCell>
        <mxCell id="dnLP0WW2CKZ9wzkx1xDA-42" value="P" style="text;html=1;align=center;verticalAlign=middle;resizable=0;points=[];autosize=1;strokeColor=none;fillColor=none;" parent="1" vertex="1">
          <mxGeometry x="295" y="438" width="30" height="30" as="geometry" />
        </mxCell>
        <mxCell id="dnLP0WW2CKZ9wzkx1xDA-43" value="komentar" style="ellipse;whiteSpace=wrap;html=1;" parent="1" vertex="1">
          <mxGeometry x="100" y="388" width="80" height="50" as="geometry" />
        </mxCell>
        <mxCell id="dnLP0WW2CKZ9wzkx1xDA-48" style="edgeStyle=orthogonalEdgeStyle;rounded=0;orthogonalLoop=1;jettySize=auto;html=1;entryX=0;entryY=1;entryDx=0;entryDy=0;endArrow=none;endFill=0;" parent="1" source="dnLP0WW2CKZ9wzkx1xDA-47" target="dnLP0WW2CKZ9wzkx1xDA-32" edge="1">
          <mxGeometry relative="1" as="geometry" />
        </mxCell>
        <mxCell id="dnLP0WW2CKZ9wzkx1xDA-47" value="datum" style="ellipse;whiteSpace=wrap;html=1;" parent="1" vertex="1">
          <mxGeometry x="110" y="495" width="80" height="50" as="geometry" />
        </mxCell>
        <mxCell id="dnLP0WW2CKZ9wzkx1xDA-49" value="M" style="text;html=1;align=center;verticalAlign=middle;resizable=0;points=[];autosize=1;strokeColor=none;fillColor=none;" parent="1" vertex="1">
          <mxGeometry x="465" y="488" width="30" height="30" as="geometry" />
        </mxCell>
        <mxCell id="dnLP0WW2CKZ9wzkx1xDA-50" value="N" style="text;html=1;align=center;verticalAlign=middle;resizable=0;points=[];autosize=1;strokeColor=none;fillColor=none;" parent="1" vertex="1">
          <mxGeometry x="480" y="410" width="30" height="30" as="geometry" />
        </mxCell>
        <mxCell id="dnLP0WW2CKZ9wzkx1xDA-54" style="edgeStyle=orthogonalEdgeStyle;rounded=0;orthogonalLoop=1;jettySize=auto;html=1;entryX=0.5;entryY=1;entryDx=0;entryDy=0;endArrow=none;endFill=0;" parent="1" source="dnLP0WW2CKZ9wzkx1xDA-51" target="dnLP0WW2CKZ9wzkx1xDA-53" edge="1">
          <mxGeometry relative="1" as="geometry" />
        </mxCell>
        <mxCell id="dnLP0WW2CKZ9wzkx1xDA-60" value="" style="edgeStyle=orthogonalEdgeStyle;rounded=0;orthogonalLoop=1;jettySize=auto;html=1;shape=link;" parent="1" source="dnLP0WW2CKZ9wzkx1xDA-51" target="dnLP0WW2CKZ9wzkx1xDA-59" edge="1">
          <mxGeometry relative="1" as="geometry" />
        </mxCell>
        <mxCell id="dnLP0WW2CKZ9wzkx1xDA-51" value="Turistichko_mesto" style="whiteSpace=wrap;html=1;align=center;fillColor=#f5f5f5;fontColor=#333333;strokeColor=#666666;" parent="1" vertex="1">
          <mxGeometry x="200" y="590" width="100" height="40" as="geometry" />
        </mxCell>
        <mxCell id="dnLP0WW2CKZ9wzkx1xDA-53" value="sodrzhi" style="shape=rhombus;perimeter=rhombusPerimeter;whiteSpace=wrap;html=1;align=center;fillColor=#dae8fc;strokeColor=#6c8ebf;" parent="1" vertex="1">
          <mxGeometry x="272.5" y="531" width="62.5" height="38" as="geometry" />
        </mxCell>
        <mxCell id="dnLP0WW2CKZ9wzkx1xDA-56" value="M" style="text;html=1;align=center;verticalAlign=middle;resizable=0;points=[];autosize=1;strokeColor=none;fillColor=none;" parent="1" vertex="1">
          <mxGeometry x="230" y="560" width="30" height="30" as="geometry" />
        </mxCell>
        <mxCell id="dnLP0WW2CKZ9wzkx1xDA-57" value="N" style="text;html=1;align=center;verticalAlign=middle;resizable=0;points=[];autosize=1;strokeColor=none;fillColor=none;" parent="1" vertex="1">
          <mxGeometry x="330" y="518" width="30" height="30" as="geometry" />
        </mxCell>
        <mxCell id="dnLP0WW2CKZ9wzkx1xDA-61" style="edgeStyle=orthogonalEdgeStyle;rounded=0;orthogonalLoop=1;jettySize=auto;html=1;endArrow=none;endFill=0;" parent="1" source="dnLP0WW2CKZ9wzkx1xDA-59" target="dnLP0WW2CKZ9wzkx1xDA-62" edge="1">
          <mxGeometry relative="1" as="geometry">
            <mxPoint x="160" y="730" as="targetPoint" />
          </mxGeometry>
        </mxCell>
        <mxCell id="dnLP0WW2CKZ9wzkx1xDA-63" style="edgeStyle=orthogonalEdgeStyle;rounded=0;orthogonalLoop=1;jettySize=auto;html=1;exitX=1;exitY=0.5;exitDx=0;exitDy=0;endArrow=none;endFill=0;" parent="1" source="dnLP0WW2CKZ9wzkx1xDA-59" target="dnLP0WW2CKZ9wzkx1xDA-64" edge="1">
          <mxGeometry relative="1" as="geometry">
            <mxPoint x="310" y="730" as="targetPoint" />
          </mxGeometry>
        </mxCell>
        <mxCell id="dnLP0WW2CKZ9wzkx1xDA-59" value="d" style="ellipse;whiteSpace=wrap;html=1;" parent="1" vertex="1">
          <mxGeometry x="237.5" y="660" width="25" height="20" as="geometry" />
        </mxCell>
        <mxCell id="dnLP0WW2CKZ9wzkx1xDA-75" style="edgeStyle=orthogonalEdgeStyle;rounded=0;orthogonalLoop=1;jettySize=auto;html=1;endArrow=none;endFill=0;" parent="1" source="dnLP0WW2CKZ9wzkx1xDA-62" target="dnLP0WW2CKZ9wzkx1xDA-76" edge="1">
          <mxGeometry relative="1" as="geometry">
            <mxPoint x="30" y="735" as="targetPoint" />
          </mxGeometry>
        </mxCell>
        <mxCell id="dnLP0WW2CKZ9wzkx1xDA-77" style="edgeStyle=orthogonalEdgeStyle;rounded=0;orthogonalLoop=1;jettySize=auto;html=1;endArrow=none;endFill=0;" parent="1" source="dnLP0WW2CKZ9wzkx1xDA-62" target="dnLP0WW2CKZ9wzkx1xDA-78" edge="1">
          <mxGeometry relative="1" as="geometry">
            <mxPoint x="110" y="785" as="targetPoint" />
            <Array as="points">
              <mxPoint x="40" y="745" />
            </Array>
          </mxGeometry>
        </mxCell>
        <mxCell id="dnLP0WW2CKZ9wzkx1xDA-80" style="edgeStyle=orthogonalEdgeStyle;rounded=0;orthogonalLoop=1;jettySize=auto;html=1;entryX=0;entryY=0.5;entryDx=0;entryDy=0;endArrow=none;endFill=0;strokeColor=default;" parent="1" source="dnLP0WW2CKZ9wzkx1xDA-62" target="dnLP0WW2CKZ9wzkx1xDA-79" edge="1">
          <mxGeometry relative="1" as="geometry">
            <mxPoint x="147.5" y="785" as="targetPoint" />
          </mxGeometry>
        </mxCell>
        <mxCell id="dnLP0WW2CKZ9wzkx1xDA-85" style="edgeStyle=orthogonalEdgeStyle;rounded=0;orthogonalLoop=1;jettySize=auto;html=1;entryX=0.5;entryY=1;entryDx=0;entryDy=0;endArrow=none;endFill=0;" parent="1" source="dnLP0WW2CKZ9wzkx1xDA-62" target="dnLP0WW2CKZ9wzkx1xDA-84" edge="1">
          <mxGeometry relative="1" as="geometry">
            <Array as="points">
              <mxPoint x="60" y="695" />
              <mxPoint x="50" y="695" />
            </Array>
          </mxGeometry>
        </mxCell>
        <mxCell id="dnLP0WW2CKZ9wzkx1xDA-88" value="N" style="edgeLabel;html=1;align=center;verticalAlign=middle;resizable=0;points=[];" parent="dnLP0WW2CKZ9wzkx1xDA-85" vertex="1" connectable="0">
          <mxGeometry x="0.48" y="2" relative="1" as="geometry">
            <mxPoint y="6" as="offset" />
          </mxGeometry>
        </mxCell>
        <mxCell id="dnLP0WW2CKZ9wzkx1xDA-62" value="Grad" style="whiteSpace=wrap;html=1;align=center;fillColor=#f5f5f5;fontColor=#333333;strokeColor=#666666;" parent="1" vertex="1">
          <mxGeometry x="60" y="715" width="100" height="40" as="geometry" />
        </mxCell>
        <mxCell id="dnLP0WW2CKZ9wzkx1xDA-65" style="edgeStyle=orthogonalEdgeStyle;rounded=0;orthogonalLoop=1;jettySize=auto;html=1;endArrow=none;endFill=0;" parent="1" source="dnLP0WW2CKZ9wzkx1xDA-64" target="dnLP0WW2CKZ9wzkx1xDA-66" edge="1">
          <mxGeometry relative="1" as="geometry">
            <mxPoint x="425" y="750" as="targetPoint" />
          </mxGeometry>
        </mxCell>
        <mxCell id="dnLP0WW2CKZ9wzkx1xDA-67" style="edgeStyle=orthogonalEdgeStyle;rounded=0;orthogonalLoop=1;jettySize=auto;html=1;endArrow=none;endFill=0;" parent="1" source="dnLP0WW2CKZ9wzkx1xDA-64" target="dnLP0WW2CKZ9wzkx1xDA-68" edge="1">
          <mxGeometry relative="1" as="geometry">
            <mxPoint x="335" y="800" as="targetPoint" />
          </mxGeometry>
        </mxCell>
        <mxCell id="dnLP0WW2CKZ9wzkx1xDA-69" style="edgeStyle=orthogonalEdgeStyle;rounded=0;orthogonalLoop=1;jettySize=auto;html=1;endArrow=none;endFill=0;" parent="1" source="dnLP0WW2CKZ9wzkx1xDA-64" target="dnLP0WW2CKZ9wzkx1xDA-70" edge="1">
          <mxGeometry relative="1" as="geometry">
            <mxPoint x="405" y="790" as="targetPoint" />
            <Array as="points">
              <mxPoint x="355" y="790" />
              <mxPoint x="410" y="790" />
            </Array>
          </mxGeometry>
        </mxCell>
        <mxCell id="dnLP0WW2CKZ9wzkx1xDA-81" style="edgeStyle=orthogonalEdgeStyle;rounded=0;orthogonalLoop=1;jettySize=auto;html=1;entryX=0.5;entryY=0;entryDx=0;entryDy=0;exitX=0;exitY=0.5;exitDx=0;exitDy=0;endArrow=none;endFill=0;" parent="1" source="dnLP0WW2CKZ9wzkx1xDA-64" target="dnLP0WW2CKZ9wzkx1xDA-79" edge="1">
          <mxGeometry relative="1" as="geometry">
            <mxPoint x="230" y="750" as="targetPoint" />
          </mxGeometry>
        </mxCell>
        <mxCell id="dnLP0WW2CKZ9wzkx1xDA-64" value="Obejkt" style="whiteSpace=wrap;html=1;align=center;fillColor=#f5f5f5;fontColor=#333333;strokeColor=#666666;" parent="1" vertex="1">
          <mxGeometry x="285" y="730" width="100" height="40" as="geometry" />
        </mxCell>
        <mxCell id="dnLP0WW2CKZ9wzkx1xDA-66" value="ime" style="ellipse;whiteSpace=wrap;html=1;align=center;" parent="1" vertex="1">
          <mxGeometry x="412.5" y="740" width="30" height="20" as="geometry" />
        </mxCell>
        <mxCell id="dnLP0WW2CKZ9wzkx1xDA-68" value="adresa" style="ellipse;whiteSpace=wrap;html=1;align=center;" parent="1" vertex="1">
          <mxGeometry x="310" y="790" width="50" height="30" as="geometry" />
        </mxCell>
        <mxCell id="dnLP0WW2CKZ9wzkx1xDA-71" style="edgeStyle=orthogonalEdgeStyle;rounded=0;orthogonalLoop=1;jettySize=auto;html=1;exitX=1;exitY=0;exitDx=0;exitDy=0;endArrow=none;endFill=0;" parent="1" source="dnLP0WW2CKZ9wzkx1xDA-70" target="dnLP0WW2CKZ9wzkx1xDA-72" edge="1">
          <mxGeometry relative="1" as="geometry">
            <mxPoint x="475" y="805" as="targetPoint" />
            <Array as="points">
              <mxPoint x="434" y="790" />
              <mxPoint x="463" y="790" />
              <mxPoint x="463" y="770" />
            </Array>
          </mxGeometry>
        </mxCell>
        <mxCell id="dnLP0WW2CKZ9wzkx1xDA-74" style="edgeStyle=orthogonalEdgeStyle;rounded=0;orthogonalLoop=1;jettySize=auto;html=1;entryX=0.067;entryY=0.307;entryDx=0;entryDy=0;endArrow=none;endFill=0;entryPerimeter=0;" parent="1" source="dnLP0WW2CKZ9wzkx1xDA-70" target="dnLP0WW2CKZ9wzkx1xDA-73" edge="1">
          <mxGeometry relative="1" as="geometry">
            <mxPoint x="470" y="830" as="targetPoint" />
          </mxGeometry>
        </mxCell>
        <mxCell id="dnLP0WW2CKZ9wzkx1xDA-70" value="geo_lokacija" style="ellipse;whiteSpace=wrap;html=1;align=center;" parent="1" vertex="1">
          <mxGeometry x="382.5" y="790" width="67.5" height="30" as="geometry" />
        </mxCell>
        <mxCell id="dnLP0WW2CKZ9wzkx1xDA-72" value="geo_shirina" style="ellipse;whiteSpace=wrap;html=1;align=center;" parent="1" vertex="1">
          <mxGeometry x="477.5" y="750" width="100" height="40" as="geometry" />
        </mxCell>
        <mxCell id="dnLP0WW2CKZ9wzkx1xDA-73" value="geo_dolzhina" style="ellipse;whiteSpace=wrap;html=1;align=center;" parent="1" vertex="1">
          <mxGeometry x="470" y="820" width="100" height="40" as="geometry" />
        </mxCell>
        <mxCell id="dnLP0WW2CKZ9wzkx1xDA-76" value="ime" style="ellipse;whiteSpace=wrap;html=1;align=center;" parent="1" vertex="1">
          <mxGeometry x="-60" y="720" width="50" height="20" as="geometry" />
        </mxCell>
        <mxCell id="dnLP0WW2CKZ9wzkx1xDA-78" value="drzhava" style="ellipse;whiteSpace=wrap;html=1;align=center;" parent="1" vertex="1">
          <mxGeometry x="-70" y="780" width="70" height="30" as="geometry" />
        </mxCell>
        <mxCell id="dnLP0WW2CKZ9wzkx1xDA-79" value="gi_sodrzhi" style="shape=rhombus;perimeter=rhombusPerimeter;whiteSpace=wrap;html=1;align=center;fillColor=#dae8fc;strokeColor=#6c8ebf;" parent="1" vertex="1">
          <mxGeometry x="197.5" y="760" width="65" height="40" as="geometry" />
        </mxCell>
        <mxCell id="dnLP0WW2CKZ9wzkx1xDA-82" value="N" style="text;html=1;align=center;verticalAlign=middle;resizable=0;points=[];autosize=1;strokeColor=none;fillColor=none;" parent="1" vertex="1">
          <mxGeometry x="235" y="708" width="30" height="30" as="geometry" />
        </mxCell>
        <mxCell id="dnLP0WW2CKZ9wzkx1xDA-83" value="1" style="text;html=1;align=center;verticalAlign=middle;resizable=0;points=[];autosize=1;strokeColor=none;fillColor=none;" parent="1" vertex="1">
          <mxGeometry x="150" y="715" width="30" height="30" as="geometry" />
        </mxCell>
        <mxCell id="dnLP0WW2CKZ9wzkx1xDA-89" style="edgeStyle=orthogonalEdgeStyle;rounded=0;orthogonalLoop=1;jettySize=auto;html=1;" parent="1" source="dnLP0WW2CKZ9wzkx1xDA-84" target="dnLP0WW2CKZ9wzkx1xDA-90" edge="1">
          <mxGeometry relative="1" as="geometry">
            <mxPoint x="50" y="635" as="targetPoint" />
          </mxGeometry>
        </mxCell>
        <mxCell id="dnLP0WW2CKZ9wzkx1xDA-84" value="sosed_na" style="shape=rhombus;perimeter=rhombusPerimeter;whiteSpace=wrap;html=1;align=center;fillColor=#dae8fc;strokeColor=#6c8ebf;" parent="1" vertex="1">
          <mxGeometry x="20" y="655" width="60" height="30" as="geometry" />
        </mxCell>
        <mxCell id="dnLP0WW2CKZ9wzkx1xDA-86" style="edgeStyle=orthogonalEdgeStyle;rounded=0;orthogonalLoop=1;jettySize=auto;html=1;entryX=0.31;entryY=0.014;entryDx=0;entryDy=0;entryPerimeter=0;exitX=1;exitY=0.5;exitDx=0;exitDy=0;endArrow=none;endFill=0;" parent="1" source="dnLP0WW2CKZ9wzkx1xDA-84" target="dnLP0WW2CKZ9wzkx1xDA-62" edge="1">
          <mxGeometry relative="1" as="geometry">
            <Array as="points">
              <mxPoint x="80" y="705" />
              <mxPoint x="91" y="705" />
            </Array>
          </mxGeometry>
        </mxCell>
        <mxCell id="dnLP0WW2CKZ9wzkx1xDA-87" value="M" style="text;html=1;align=center;verticalAlign=middle;resizable=0;points=[];autosize=1;strokeColor=none;fillColor=none;" parent="1" vertex="1">
          <mxGeometry x="70" y="678" width="30" height="30" as="geometry" />
        </mxCell>
        <mxCell id="dnLP0WW2CKZ9wzkx1xDA-90" value="rastojanie" style="ellipse;whiteSpace=wrap;html=1;align=center;" parent="1" vertex="1">
          <mxGeometry x="-20" y="625" width="60" height="20" as="geometry" />
        </mxCell>
        <mxCell id="dnLP0WW2CKZ9wzkx1xDA-93" value="" style="edgeStyle=orthogonalEdgeStyle;rounded=0;orthogonalLoop=1;jettySize=auto;html=1;endArrow=none;endFill=0;" parent="1" source="dnLP0WW2CKZ9wzkx1xDA-91" target="dnLP0WW2CKZ9wzkx1xDA-92" edge="1">
          <mxGeometry relative="1" as="geometry" />
        </mxCell>
        <mxCell id="dnLP0WW2CKZ9wzkx1xDA-94" style="edgeStyle=orthogonalEdgeStyle;rounded=0;orthogonalLoop=1;jettySize=auto;html=1;endArrow=none;endFill=0;" parent="1" source="dnLP0WW2CKZ9wzkx1xDA-91" target="dnLP0WW2CKZ9wzkx1xDA-95" edge="1">
          <mxGeometry relative="1" as="geometry">
            <mxPoint x="720" y="550" as="targetPoint" />
            <Array as="points">
              <mxPoint x="720" y="570" />
              <mxPoint x="720" y="570" />
            </Array>
          </mxGeometry>
        </mxCell>
        <mxCell id="dnLP0WW2CKZ9wzkx1xDA-91" value="Tusistichka_agencija" style="whiteSpace=wrap;html=1;align=center;fillColor=#f5f5f5;fontColor=#333333;strokeColor=#666666;" parent="1" vertex="1">
          <mxGeometry x="640" y="579" width="110" height="51" as="geometry" />
        </mxCell>
        <mxCell id="dnLP0WW2CKZ9wzkx1xDA-92" value="ime" style="ellipse;whiteSpace=wrap;html=1;" parent="1" vertex="1">
          <mxGeometry x="680" y="531" width="45" height="13.5" as="geometry" />
        </mxCell>
        <mxCell id="dnLP0WW2CKZ9wzkx1xDA-95" value="lokacija" style="ellipse;whiteSpace=wrap;html=1;align=center;" parent="1" vertex="1">
          <mxGeometry x="750" y="535" width="60" height="30" as="geometry" />
        </mxCell>
        <mxCell id="dnLP0WW2CKZ9wzkx1xDA-107" style="edgeStyle=orthogonalEdgeStyle;rounded=0;orthogonalLoop=1;jettySize=auto;html=1;endArrow=none;endFill=0;" parent="1" source="dnLP0WW2CKZ9wzkx1xDA-96" target="dnLP0WW2CKZ9wzkx1xDA-108" edge="1">
          <mxGeometry relative="1" as="geometry">
            <mxPoint x="660" y="669.9999999999999" as="targetPoint" />
          </mxGeometry>
        </mxCell>
        <mxCell id="dnLP0WW2CKZ9wzkx1xDA-96" value="Patuvanje" style="whiteSpace=wrap;html=1;fillColor=#f5f5f5;fontColor=#333333;strokeColor=#666666;" parent="1" vertex="1">
          <mxGeometry x="525" y="645" width="70" height="40" as="geometry" />
        </mxCell>
        <mxCell id="dnLP0WW2CKZ9wzkx1xDA-97" value="organizira" style="shape=rhombus;perimeter=rhombusPerimeter;whiteSpace=wrap;html=1;align=center;fillColor=#dae8fc;strokeColor=#6c8ebf;" parent="1" vertex="1">
          <mxGeometry x="560" y="590" width="60" height="30" as="geometry" />
        </mxCell>
        <mxCell id="dnLP0WW2CKZ9wzkx1xDA-98" style="edgeStyle=orthogonalEdgeStyle;rounded=0;orthogonalLoop=1;jettySize=auto;html=1;entryX=0.359;entryY=-0.036;entryDx=0;entryDy=0;entryPerimeter=0;shape=link;" parent="1" source="dnLP0WW2CKZ9wzkx1xDA-97" target="dnLP0WW2CKZ9wzkx1xDA-96" edge="1">
          <mxGeometry relative="1" as="geometry" />
        </mxCell>
        <mxCell id="dnLP0WW2CKZ9wzkx1xDA-99" style="edgeStyle=orthogonalEdgeStyle;rounded=0;orthogonalLoop=1;jettySize=auto;html=1;exitX=1;exitY=0.5;exitDx=0;exitDy=0;entryX=-0.001;entryY=0.429;entryDx=0;entryDy=0;entryPerimeter=0;endArrow=none;endFill=0;" parent="1" source="dnLP0WW2CKZ9wzkx1xDA-97" target="dnLP0WW2CKZ9wzkx1xDA-91" edge="1">
          <mxGeometry relative="1" as="geometry" />
        </mxCell>
        <mxCell id="dnLP0WW2CKZ9wzkx1xDA-100" value="N" style="text;html=1;align=center;verticalAlign=middle;resizable=0;points=[];autosize=1;strokeColor=none;fillColor=none;" parent="1" vertex="1">
          <mxGeometry x="560" y="615" width="30" height="30" as="geometry" />
        </mxCell>
        <mxCell id="dnLP0WW2CKZ9wzkx1xDA-101" value="1" style="text;html=1;align=center;verticalAlign=middle;resizable=0;points=[];autosize=1;strokeColor=none;fillColor=none;" parent="1" vertex="1">
          <mxGeometry x="610" y="579" width="30" height="30" as="geometry" />
        </mxCell>
        <mxCell id="dnLP0WW2CKZ9wzkx1xDA-104" style="edgeStyle=orthogonalEdgeStyle;rounded=0;orthogonalLoop=1;jettySize=auto;html=1;entryX=1;entryY=0.5;entryDx=0;entryDy=0;endArrow=none;endFill=0;" parent="1" source="dnLP0WW2CKZ9wzkx1xDA-102" target="dnLP0WW2CKZ9wzkx1xDA-51" edge="1">
          <mxGeometry relative="1" as="geometry">
            <Array as="points">
              <mxPoint x="320" y="660" />
              <mxPoint x="320" y="610" />
            </Array>
          </mxGeometry>
        </mxCell>
        <mxCell id="dnLP0WW2CKZ9wzkx1xDA-102" value="vkluchuva" style="shape=rhombus;perimeter=rhombusPerimeter;whiteSpace=wrap;html=1;align=center;fillColor=#dae8fc;strokeColor=#6c8ebf;" parent="1" vertex="1">
          <mxGeometry x="410" y="651" width="70" height="38" as="geometry" />
        </mxCell>
        <mxCell id="dnLP0WW2CKZ9wzkx1xDA-103" style="edgeStyle=orthogonalEdgeStyle;rounded=0;orthogonalLoop=1;jettySize=auto;html=1;entryX=0.029;entryY=0.648;entryDx=0;entryDy=0;entryPerimeter=0;shape=link;" parent="1" source="dnLP0WW2CKZ9wzkx1xDA-102" target="dnLP0WW2CKZ9wzkx1xDA-96" edge="1">
          <mxGeometry relative="1" as="geometry" />
        </mxCell>
        <mxCell id="dnLP0WW2CKZ9wzkx1xDA-105" value="N" style="text;html=1;align=center;verticalAlign=middle;resizable=0;points=[];autosize=1;strokeColor=none;fillColor=none;" parent="1" vertex="1">
          <mxGeometry x="300" y="621" width="30" height="30" as="geometry" />
        </mxCell>
        <mxCell id="dnLP0WW2CKZ9wzkx1xDA-106" value="M" style="text;html=1;align=center;verticalAlign=middle;resizable=0;points=[];autosize=1;strokeColor=none;fillColor=none;" parent="1" vertex="1">
          <mxGeometry x="477.5" y="648" width="30" height="30" as="geometry" />
        </mxCell>
        <mxCell id="dnLP0WW2CKZ9wzkx1xDA-109" style="edgeStyle=orthogonalEdgeStyle;rounded=0;orthogonalLoop=1;jettySize=auto;html=1;shape=link;" parent="1" source="dnLP0WW2CKZ9wzkx1xDA-108" target="dnLP0WW2CKZ9wzkx1xDA-110" edge="1">
          <mxGeometry relative="1" as="geometry">
            <mxPoint x="695" y="750" as="targetPoint" />
          </mxGeometry>
        </mxCell>
        <mxCell id="dnLP0WW2CKZ9wzkx1xDA-108" value="odrzhano" style="shape=rhombus;perimeter=rhombusPerimeter;whiteSpace=wrap;html=1;align=center;fillColor=#dae8fc;strokeColor=#6c8ebf;" parent="1" vertex="1">
          <mxGeometry x="635" y="690" width="55" height="40" as="geometry" />
        </mxCell>
        <mxCell id="dnLP0WW2CKZ9wzkx1xDA-115" style="edgeStyle=orthogonalEdgeStyle;rounded=0;orthogonalLoop=1;jettySize=auto;html=1;endArrow=none;endFill=0;" parent="1" source="dnLP0WW2CKZ9wzkx1xDA-110" target="dnLP0WW2CKZ9wzkx1xDA-116" edge="1">
          <mxGeometry relative="1" as="geometry">
            <mxPoint x="620" y="810" as="targetPoint" />
            <Array as="points">
              <mxPoint x="680" y="810" />
              <mxPoint x="650" y="810" />
            </Array>
          </mxGeometry>
        </mxCell>
        <mxCell id="dnLP0WW2CKZ9wzkx1xDA-117" style="edgeStyle=orthogonalEdgeStyle;rounded=0;orthogonalLoop=1;jettySize=auto;html=1;endArrow=none;endFill=0;" parent="1" source="dnLP0WW2CKZ9wzkx1xDA-110" target="dnLP0WW2CKZ9wzkx1xDA-118" edge="1">
          <mxGeometry relative="1" as="geometry">
            <mxPoint x="730" y="830" as="targetPoint" />
          </mxGeometry>
        </mxCell>
        <mxCell id="dnLP0WW2CKZ9wzkx1xDA-119" style="edgeStyle=orthogonalEdgeStyle;rounded=0;orthogonalLoop=1;jettySize=auto;html=1;endArrow=none;endFill=0;" parent="1" source="dnLP0WW2CKZ9wzkx1xDA-110" target="dnLP0WW2CKZ9wzkx1xDA-120" edge="1">
          <mxGeometry relative="1" as="geometry">
            <mxPoint x="790" y="771" as="targetPoint" />
          </mxGeometry>
        </mxCell>
        <mxCell id="dnLP0WW2CKZ9wzkx1xDA-110" value="Odrzhano_patuvanje" style="rounded=0;arcSize=10;whiteSpace=wrap;html=1;align=center;fillColor=#f5f5f5;fontColor=#333333;strokeColor=#666666;" parent="1" vertex="1">
          <mxGeometry x="645" y="748" width="115" height="46" as="geometry" />
        </mxCell>
        <mxCell id="dnLP0WW2CKZ9wzkx1xDA-121" style="edgeStyle=orthogonalEdgeStyle;rounded=0;orthogonalLoop=1;jettySize=auto;html=1;shape=link;" parent="1" source="dnLP0WW2CKZ9wzkx1xDA-110" target="dnLP0WW2CKZ9wzkx1xDA-122" edge="1">
          <mxGeometry relative="1" as="geometry">
            <mxPoint x="850" y="480" as="targetPoint" />
            <Array as="points">
              <mxPoint x="790" y="748" />
              <mxPoint x="790" y="660" />
              <mxPoint x="845" y="660" />
            </Array>
          </mxGeometry>
        </mxCell>
        <mxCell id="dnLP0WW2CKZ9wzkx1xDA-112" value="N" style="text;html=1;align=center;verticalAlign=middle;resizable=0;points=[];autosize=1;strokeColor=none;fillColor=none;" parent="1" vertex="1">
          <mxGeometry x="660" y="721" width="30" height="30" as="geometry" />
        </mxCell>
        <mxCell id="dnLP0WW2CKZ9wzkx1xDA-113" value="1" style="text;html=1;align=center;verticalAlign=middle;resizable=0;points=[];autosize=1;strokeColor=none;fillColor=none;" parent="1" vertex="1">
          <mxGeometry x="590" y="640" width="30" height="30" as="geometry" />
        </mxCell>
        <mxCell id="dnLP0WW2CKZ9wzkx1xDA-116" value="pocheten_datum" style="ellipse;whiteSpace=wrap;html=1;align=center;" parent="1" vertex="1">
          <mxGeometry x="600" y="830" width="100" height="40" as="geometry" />
        </mxCell>
        <mxCell id="dnLP0WW2CKZ9wzkx1xDA-118" value="kraen_datum" style="ellipse;whiteSpace=wrap;html=1;align=center;" parent="1" vertex="1">
          <mxGeometry x="710" y="830" width="100" height="40" as="geometry" />
        </mxCell>
        <mxCell id="dnLP0WW2CKZ9wzkx1xDA-120" value="osnovna_cena" style="ellipse;whiteSpace=wrap;html=1;align=center;" parent="1" vertex="1">
          <mxGeometry x="790" y="751" width="100" height="40" as="geometry" />
        </mxCell>
        <mxCell id="dnLP0WW2CKZ9wzkx1xDA-122" value="prisustvuvale" style="shape=rhombus;perimeter=rhombusPerimeter;whiteSpace=wrap;html=1;align=center;fillColor=#dae8fc;strokeColor=#6c8ebf;" parent="1" vertex="1">
          <mxGeometry x="800" y="468" width="90" height="40" as="geometry" />
        </mxCell>
        <mxCell id="dnLP0WW2CKZ9wzkx1xDA-124" value="N" style="text;html=1;align=center;verticalAlign=middle;resizable=0;points=[];autosize=1;strokeColor=none;fillColor=none;" parent="1" vertex="1">
          <mxGeometry x="762.5" y="710" width="30" height="30" as="geometry" />
        </mxCell>
        <mxCell id="dnLP0WW2CKZ9wzkx1xDA-125" value="M" style="text;html=1;align=center;verticalAlign=middle;resizable=0;points=[];autosize=1;strokeColor=none;fillColor=none;" parent="1" vertex="1">
          <mxGeometry x="450" y="380" width="30" height="30" as="geometry" />
        </mxCell>
        <mxCell id="dnLP0WW2CKZ9wzkx1xDA-126" value="fakultativna_poseta" style="shape=rhombus;perimeter=rhombusPerimeter;whiteSpace=wrap;html=1;align=center;fillColor=#dae8fc;strokeColor=#6c8ebf;" parent="1" vertex="1">
          <mxGeometry x="612.5" y="455" width="127.5" height="45" as="geometry" />
        </mxCell>
        <mxCell id="dnLP0WW2CKZ9wzkx1xDA-129" value="" style="endArrow=none;html=1;rounded=0;exitX=1;exitY=0;exitDx=0;exitDy=0;" parent="1" source="dnLP0WW2CKZ9wzkx1xDA-51" target="dnLP0WW2CKZ9wzkx1xDA-126" edge="1">
          <mxGeometry relative="1" as="geometry">
            <mxPoint x="335" y="580" as="sourcePoint" />
            <mxPoint x="495" y="580" as="targetPoint" />
            <Array as="points">
              <mxPoint x="480" y="550" />
            </Array>
          </mxGeometry>
        </mxCell>
        <mxCell id="dnLP0WW2CKZ9wzkx1xDA-131" value="M" style="text;html=1;align=center;verticalAlign=middle;resizable=0;points=[];autosize=1;strokeColor=none;fillColor=none;" parent="1" vertex="1">
          <mxGeometry x="590" y="478" width="30" height="30" as="geometry" />
        </mxCell>
        <mxCell id="dnLP0WW2CKZ9wzkx1xDA-132" value="N" style="text;html=1;align=center;verticalAlign=middle;resizable=0;points=[];autosize=1;strokeColor=none;fillColor=none;" parent="1" vertex="1">
          <mxGeometry x="670" y="418" width="30" height="30" as="geometry" />
        </mxCell>
        <mxCell id="dnLP0WW2CKZ9wzkx1xDA-134" value="" style="endArrow=none;html=1;rounded=0;exitX=0.686;exitY=0.111;exitDx=0;exitDy=0;exitPerimeter=0;" parent="1" source="dnLP0WW2CKZ9wzkx1xDA-126" target="dnLP0WW2CKZ9wzkx1xDA-135" edge="1">
          <mxGeometry relative="1" as="geometry">
            <mxPoint x="690" y="448" as="sourcePoint" />
            <mxPoint x="740" y="440" as="targetPoint" />
          </mxGeometry>
        </mxCell>
        <mxCell id="dnLP0WW2CKZ9wzkx1xDA-135" value="datum" style="ellipse;whiteSpace=wrap;html=1;align=center;" parent="1" vertex="1">
          <mxGeometry x="717.5" y="417" width="75" height="23" as="geometry" />
        </mxCell>
        <mxCell id="dnLP0WW2CKZ9wzkx1xDA-136" value="" style="endArrow=none;html=1;rounded=0;exitX=1;exitY=0;exitDx=0;exitDy=0;" parent="1" source="dnLP0WW2CKZ9wzkx1xDA-126" target="dnLP0WW2CKZ9wzkx1xDA-137" edge="1">
          <mxGeometry relative="1" as="geometry">
            <mxPoint x="717.5021495369173" y="467.40605277773545" as="sourcePoint" />
            <mxPoint x="781.72" y="462.99999999999994" as="targetPoint" />
          </mxGeometry>
        </mxCell>
        <mxCell id="dnLP0WW2CKZ9wzkx1xDA-137" value="cena" style="ellipse;whiteSpace=wrap;html=1;align=center;" parent="1" vertex="1">
          <mxGeometry x="759.22" y="439.99999999999994" width="75" height="23" as="geometry" />
        </mxCell>
        <mxCell id="n-Vg2vqjVsoegnmbFKgW-1" style="edgeStyle=orthogonalEdgeStyle;rounded=0;orthogonalLoop=1;jettySize=auto;html=1;exitX=1;exitY=1;exitDx=0;exitDy=0;entryX=0.6;entryY=-0.022;entryDx=0;entryDy=0;entryPerimeter=0;endArrow=none;endFill=0;" edge="1" parent="1" source="dnLP0WW2CKZ9wzkx1xDA-126" target="dnLP0WW2CKZ9wzkx1xDA-110">
          <mxGeometry relative="1" as="geometry" />
        </mxCell>
        <mxCell id="n-Vg2vqjVsoegnmbFKgW-2" value="P" style="text;html=1;align=center;verticalAlign=middle;resizable=0;points=[];autosize=1;strokeColor=none;fillColor=none;" vertex="1" parent="1">
          <mxGeometry x="705" y="488" width="30" height="30" as="geometry" />
        </mxCell>
        <mxCell id="n-Vg2vqjVsoegnmbFKgW-3" value="1" style="text;html=1;align=center;verticalAlign=middle;resizable=0;points=[];autosize=1;strokeColor=none;fillColor=none;" vertex="1" parent="1">
          <mxGeometry x="705" y="688" width="30" height="30" as="geometry" />
        </mxCell>
      </root>
    </mxGraphModel>
  </diagram>
</mxfile>
